<?xml version="1.0" encoding="UTF-8" standalone="no"?>
<!DOCTYPE svg PUBLIC "-//W3C//DTD SVG 1.1//EN"
 "http://www.w3.org/Graphics/SVG/1.1/DTD/svg11.dtd">
<!-- Generated by graphviz version 2.38.0 (20140413.2041)
 -->
<!-- Title: G Pages: 1 -->
<svg width="165pt" height="96pt"
 viewBox="0.00 0.00 165.00 96.00" xmlns="http://www.w3.org/2000/svg" xmlns:xlink="http://www.w3.org/1999/xlink">
<g id="graph0" class="graph" transform="scale(1 1) rotate(0) translate(4 92)">
<title>G</title>
<polygon fill="white" stroke="none" points="-4,4 -4,-92 161,-92 161,4 -4,4"/>
<g id="clust1" class="cluster"><title>cluster_Global</title>
<path fill="none" stroke="gray" d="M20,-8C20,-8 137,-8 137,-8 143,-8 149,-14 149,-20 149,-20 149,-68 149,-68 149,-74 143,-80 137,-80 137,-80 20,-80 20,-80 14,-80 8,-74 8,-68 8,-68 8,-20 8,-20 8,-14 14,-8 20,-8"/>
<text text-anchor="middle" x="78.5" y="-67.2" font-family="Times New Roman,serif" font-size="11.00" fill="gray">Global</text>
</g>
<!-- \\BarcodeValidator -->
<g id="node1" class="node"><title>\\BarcodeValidator</title>
<polygon fill="none" stroke="black" points="141,-52 16,-52 16,-16 141,-16 141,-52"/>
<text text-anchor="middle" x="78.5" y="-31.2" font-family="Courier,monospace" font-size="11.00">BarcodeValidator</text>
</g>
</g>
</svg>
