<?xml version="1.0" standalone="no"?>
<!DOCTYPE svg PUBLIC "-//W3C//DTD SVG 20010904//EN"
 "http://www.w3.org/TR/2001/REC-SVG-20010904/DTD/svg10.dtd">
<svg version="1.0" xmlns="http://www.w3.org/2000/svg"
 width="2349.000000pt" height="2349.000000pt" viewBox="0 0 2349.000000 2349.000000"
 preserveAspectRatio="xMidYMid meet">
<metadata>
Created by potrace 1.11, written by Peter Selinger 2001-2013
</metadata>
<g transform="translate(0.000000,2349.000000) scale(0.100000,-0.100000)"
fill="#000000" stroke="none">
<path d="M11880 22689 c-560 -30 -1172 -104 -1750 -210 -257 -47 -761 -158
-776 -170 -6 -5 -13 -7 -16 -4 -2 3 -20 0 -39 -6 -19 -5 -43 -12 -54 -14 -34
-7 -109 -27 -125 -33 -8 -3 -18 -4 -23 -4 -4 1 -24 -5 -45 -13 -20 -9 -37 -15
-37 -14 0 5 -111 -25 -121 -33 -7 -5 -16 -8 -20 -7 -12 3 -182 -45 -244 -68
-8 -3 -21 -7 -28 -9 -8 -1 -21 -6 -30 -10 -9 -4 -21 -8 -27 -9 -13 -3 -219
-76 -320 -113 -557 -206 -1295 -562 -1966 -947 -1106 -636 -2161 -1403 -3127
-2273 -234 -211 -788 -758 -962 -948 -63 -70 -122 -134 -131 -143 -15 -15
-205 -234 -259 -297 -204 -242 -405 -500 -565 -728 -34 -49 -266 -396 -294
-441 -39 -62 -69 -111 -93 -155 -15 -25 -56 -97 -92 -160 -183 -318 -363 -731
-465 -1070 -36 -119 -108 -429 -109 -470 -1 -8 -3 -24 -5 -35 -3 -11 -8 -45
-12 -75 -3 -30 -8 -68 -11 -85 -3 -16 -7 -122 -9 -235 -5 -230 6 -374 41 -540
9 -41 18 -88 21 -104 13 -76 100 -315 159 -435 67 -137 159 -293 175 -299 5
-2 9 -8 9 -14 0 -16 143 -197 231 -291 93 -101 311 -300 567 -518 98 -83 186
-159 197 -168 11 -10 88 -72 170 -140 83 -67 157 -127 165 -134 74 -62 327
-257 333 -257 5 0 6 8 2 18 -44 106 -158 425 -205 572 -243 758 -324 1335
-266 1884 116 1099 470 1978 1113 2771 116 142 486 517 628 634 527 437 1151
793 1880 1071 956 366 2100 595 3370 675 436 27 790 36 1655 42 1055 7 1736
-10 2505 -62 2241 -152 3886 -544 4870 -1160 211 -132 348 -238 509 -394 463
-450 696 -993 757 -1765 17 -211 6 -687 -20 -931 -76 -695 -207 -1143 -517
-1755 -581 -1150 -1673 -2343 -3179 -3471 -794 -595 -1678 -1154 -2650 -1674
-252 -135 -892 -455 -1135 -567 -91 -42 -205 -95 -255 -118 -128 -59 -606
-264 -825 -353 -730 -297 -1508 -565 -2235 -772 -366 -104 -514 -125 -738
-106 -1104 98 -2557 1178 -3754 2791 -429 579 -790 1168 -1125 1835 -77 154
-138 273 -136 265 3 -8 17 -54 32 -102 34 -111 152 -448 166 -470 5 -10 10
-23 10 -29 0 -6 6 -25 14 -42 8 -18 44 -108 81 -202 98 -246 218 -513 354
-783 704 -1397 1625 -2403 2690 -2936 441 -221 854 -346 1366 -413 114 -15
209 -18 515 -18 384 0 534 7 1100 51 676 52 1468 143 2068 239 84 14 161 25
170 24 9 0 -32 -18 -92 -39 -129 -46 -282 -123 -278 -140 1 -6 -2 -9 -8 -5 -6
4 -26 -4 -46 -16 -27 -16 -32 -24 -22 -30 9 -7 7 -8 -9 -7 -32 4 -212 -143
-356 -292 -320 -330 -517 -703 -517 -977 0 -143 45 -255 136 -343 57 -55 211
-153 225 -144 5 3 9 0 9 -5 0 -15 179 -103 192 -95 7 5 8 2 3 -6 -6 -10 -4
-12 9 -7 9 4 15 3 12 -2 -5 -8 42 -26 53 -21 2 1 7 -3 10 -8 10 -16 82 -43 95
-35 6 3 7 2 3 -2 -9 -10 180 -86 362 -146 161 -52 469 -132 486 -125 8 3 15 1
17 -4 2 -5 21 -11 43 -14 22 -2 47 -6 55 -9 30 -12 213 -38 226 -33 7 3 16 1
18 -3 3 -5 71 -14 151 -21 153 -13 630 -10 654 4 7 4 35 10 62 11 114 8 498
124 520 157 3 6 10 9 15 9 20 -2 143 63 137 72 -4 6 -1 7 7 2 8 -5 18 -1 27
10 7 11 13 16 13 12 0 -4 11 0 25 9 14 9 22 20 19 25 -3 5 1 6 9 4 16 -7 153
107 149 124 -1 7 2 10 7 7 22 -14 122 157 146 249 22 84 19 231 -5 334 -11 47
-25 89 -29 95 -5 6 -10 16 -11 21 -4 34 -14 54 -23 48 -6 -3 -7 -1 -3 5 10 17
-61 165 -75 156 -8 -4 -9 -3 -5 5 10 15 -64 142 -77 134 -6 -3 -7 -1 -4 4 8
12 -88 153 -104 153 -6 0 -8 4 -4 9 3 5 -4 16 -15 24 -11 7 -18 16 -15 18 7 7
-186 234 -197 231 -5 -1 -7 1 -5 5 8 12 -125 150 -228 238 -49 42 -130 104
-180 137 -108 73 -262 151 -277 142 -6 -4 -8 -3 -5 3 12 19 -272 115 -348 117
-24 0 -41 4 -39 7 6 11 -211 35 -346 40 -23 1 -9 6 45 16 685 127 1437 293
2015 445 l235 62 175 -12 c368 -26 701 -34 1115 -27 230 3 422 8 425 10 3 1
77 6 165 9 88 4 167 9 175 11 8 2 56 6 105 9 433 28 1018 117 1590 242 2321
510 3859 1346 4649 2529 52 77 105 159 117 182 13 22 41 71 63 108 21 37 34
70 30 74 -5 4 -38 20 -74 36 -456 196 -1112 519 -1467 721 l-42 24 72 74 c163
166 372 389 458 491 19 22 39 45 45 50 19 18 178 207 286 340 429 532 778
1068 1051 1611 l45 91 -43 209 c-275 1332 -925 2950 -1858 4629 -574 1032
-1230 1864 -2047 2596 -96 86 -320 275 -381 322 -35 26 -142 54 -499 127 -85
18 -157 34 -158 35 -2 2 15 21 39 42 41 38 55 49 122 108 l35 30 -172 113
c-827 545 -1708 938 -2691 1201 -640 171 -1343 282 -2075 327 -170 11 -1071
13 -1250 3z m-347 -16846 c-7 -2 -19 -2 -25 0 -7 3 -2 5 12 5 14 0 19 -2 13
-5z m-208 -62 c3 -5 2 -12 -3 -15 -5 -3 -9 1 -9 9 0 17 3 19 12 6z m410 -51
c-3 -5 -12 -10 -18 -10 -7 0 -6 4 3 10 19 12 23 12 15 0z m150 -29 c3 -5 2
-12 -3 -15 -5 -3 -9 1 -9 9 0 17 3 19 12 6z m-875 -87 c0 -8 -19 -13 -24 -6
-3 5 1 9 9 9 8 0 15 -2 15 -3z m804 -2 c3 -5 -1 -9 -9 -9 -8 0 -12 4 -9 9 3 4
7 8 9 8 2 0 6 -4 9 -8z m-807 -77 c0 -8 -4 -12 -9 -9 -5 3 -6 10 -3 15 9 13
12 11 12 -6z m173 -1 c0 -8 -19 -13 -24 -6 -3 5 1 9 9 9 8 0 15 -2 15 -3z
m1194 -82 c3 -5 -1 -9 -9 -9 -8 0 -12 4 -9 9 3 4 7 8 9 8 2 0 6 -4 9 -8z m240
-160 c3 -5 -1 -9 -9 -9 -8 0 -12 4 -9 9 3 4 7 8 9 8 2 0 6 -4 9 -8z m-1609
-71 c3 -5 2 -12 -3 -15 -5 -3 -9 1 -9 9 0 17 3 19 12 6z m1680 0 c3 -5 2 -12
-3 -15 -5 -3 -9 1 -9 9 0 17 3 19 12 6z m-2400 -10 c3 -5 2 -12 -3 -15 -5 -3
-9 1 -9 9 0 17 3 19 12 6z m160 0 c3 -5 2 -12 -3 -15 -5 -3 -9 1 -9 9 0 17 3
19 12 6z m2085 3 c0 -8 -19 -13 -24 -6 -3 5 1 9 9 9 8 0 15 -2 15 -3z m-523
-49 c0 -8 -4 -12 -9 -9 -5 3 -6 10 -3 15 9 13 12 11 12 -6z m-1322 -24 c3 -5
2 -12 -3 -15 -5 -3 -9 1 -9 9 0 17 3 19 12 6z m165 -7 c0 -8 -19 -13 -24 -6
-3 5 1 9 9 9 8 0 15 -2 15 -3z m800 0 c0 -8 -19 -13 -24 -6 -3 5 1 9 9 9 8 0
15 -2 15 -3z m650 0 c0 -8 -19 -13 -24 -6 -3 5 1 9 9 9 8 0 15 -2 15 -3z m160
0 c0 -8 -19 -13 -24 -6 -3 5 1 9 9 9 8 0 15 -2 15 -3z m344 -10 c3 -8 2 -12
-4 -9 -6 3 -10 10 -10 16 0 14 7 11 14 -7z m-1859 -33 c3 -5 2 -12 -3 -15 -5
-3 -9 1 -9 9 0 17 3 19 12 6z m60 -30 c3 -5 2 -12 -3 -15 -5 -3 -9 1 -9 9 0
17 3 19 12 6z m-600 -40 c3 -5 2 -12 -3 -15 -5 -3 -9 1 -9 9 0 17 3 19 12 6z
m2685 -5 c0 -3 -4 -8 -10 -11 -5 -3 -10 -1 -10 4 0 6 5 11 10 11 6 0 10 -2 10
-4z m-1445 -35 c3 -5 2 -12 -3 -15 -5 -3 -9 1 -9 9 0 17 3 19 12 6z m322 -6
c0 -8 -4 -12 -9 -9 -5 3 -6 10 -3 15 9 13 12 11 12 -6z m160 0 c0 -8 -4 -12
-9 -9 -5 3 -6 10 -3 15 9 13 12 11 12 -6z m-1037 -1 c0 -8 -19 -13 -24 -6 -3
5 1 9 9 9 8 0 15 -2 15 -3z m1355 -3 c3 -5 2 -12 -3 -15 -5 -3 -9 1 -9 9 0 17
3 19 12 6z m-1322 -36 c-3 -9 -8 -14 -10 -11 -3 3 -2 9 2 15 9 16 15 13 8 -4z
m1457 1 c0 -2 -8 -10 -17 -17 -16 -13 -17 -12 -4 4 13 16 21 21 21 13z m-1015
-45 c3 -5 2 -12 -3 -15 -5 -3 -9 1 -9 9 0 17 3 19 12 6z m322 -6 c0 -8 -4 -12
-9 -9 -5 3 -6 10 -3 15 9 13 12 11 12 -6z m160 0 c0 -8 -4 -12 -9 -9 -5 3 -6
10 -3 15 9 13 12 11 12 -6z m-2080 -80 c0 -8 -4 -12 -9 -9 -5 3 -6 10 -3 15 9
13 12 11 12 -6z m653 9 c0 -8 -19 -13 -24 -6 -3 5 1 9 9 9 8 0 15 -2 15 -3z
m2067 -9 c0 -8 -4 -12 -9 -9 -5 3 -6 10 -3 15 9 13 12 11 12 -6z m-2633 -73
c3 -5 -1 -9 -9 -9 -8 0 -12 4 -9 9 3 4 7 8 9 8 2 0 6 -4 9 -8z m791 -1 c3 -5
2 -12 -3 -15 -5 -3 -9 1 -9 9 0 17 3 19 12 6z m-225 -77 c0 -8 -19 -13 -24 -6
-3 5 1 9 9 9 8 0 15 -2 15 -3z m705 -3 c3 -5 2 -12 -3 -15 -5 -3 -9 1 -9 9 0
17 3 19 12 6z m175 3 c0 -8 -19 -13 -24 -6 -3 5 1 9 9 9 8 0 15 -2 15 -3z
m144 -2 c3 -5 -1 -9 -9 -9 -8 0 -12 4 -9 9 3 4 7 8 9 8 2 0 6 -4 9 -8z m886 2
c0 -8 -19 -13 -24 -6 -3 5 1 9 9 9 8 0 15 -2 15 -3z m157 -9 c0 -8 -4 -12 -9
-9 -5 3 -6 10 -3 15 9 13 12 11 12 -6z m-2560 -80 c0 -8 -4 -12 -9 -9 -5 3 -6
10 -3 15 9 13 12 11 12 -6z m563 9 c0 -8 -19 -13 -24 -6 -3 5 1 9 9 9 8 0 15
-2 15 -3z m-236 -82 c3 -5 -1 -9 -9 -9 -8 0 -12 4 -9 9 3 4 7 8 9 8 2 0 6 -4
9 -8z m713 -7 c0 -8 -4 -12 -9 -9 -5 3 -6 10 -3 15 9 13 12 11 12 -6z m318 6
c3 -5 2 -12 -3 -15 -5 -3 -9 1 -9 9 0 17 3 19 12 6z m1885 -1 c0 -5 -4 -10
-10 -10 -5 0 -10 5 -10 10 0 6 5 10 10 10 6 0 10 -4 10 -10z m-923 -75 c0 -8
-4 -12 -9 -9 -5 3 -6 10 -3 15 9 13 12 11 12 -6z m-2313 -3 c3 -5 -1 -9 -9 -9
-8 0 -12 4 -9 9 3 4 7 8 9 8 2 0 6 -4 9 -8z m956 2 c0 -8 -19 -13 -24 -6 -3 5
1 9 9 9 8 0 15 -2 15 -3z m1995 -3 c3 -5 2 -12 -3 -15 -5 -3 -9 1 -9 9 0 17 3
19 12 6z m-561 -79 c3 -5 -1 -9 -9 -9 -8 0 -12 4 -9 9 3 4 7 8 9 8 2 0 6 -4 9
-8z m336 2 c0 -8 -19 -13 -24 -6 -3 5 1 9 9 9 8 0 15 -2 15 -3z m-2520 -40 c0
-8 -19 -13 -24 -6 -3 5 1 9 9 9 8 0 15 -2 15 -3z m160 0 c0 -8 -19 -13 -24 -6
-3 5 1 9 9 9 8 0 15 -2 15 -3z m830 2 c0 -2 -7 -7 -16 -10 -8 -3 -12 -2 -9 4
6 10 25 14 25 6z m160 0 c0 -2 -7 -7 -16 -10 -8 -3 -12 -2 -9 4 6 10 25 14 25
6z m1195 -35 c3 -5 2 -12 -3 -15 -5 -3 -9 1 -9 9 0 17 3 19 12 6z m-2318 -16
c0 -8 -4 -12 -9 -9 -5 3 -6 10 -3 15 9 13 12 11 12 -6z m160 0 c0 -8 -4 -12
-9 -9 -5 3 -6 10 -3 15 9 13 12 11 12 -6z m400 0 c0 -8 -4 -12 -9 -9 -5 3 -6
10 -3 15 9 13 12 11 12 -6z m1603 9 c0 -8 -19 -13 -24 -6 -3 5 1 9 9 9 8 0 15
-2 15 -3z m757 -49 c0 -8 -4 -12 -9 -9 -5 3 -6 10 -3 15 9 13 12 11 12 -6z
m-3082 -24 c3 -5 2 -12 -3 -15 -5 -3 -9 1 -9 9 0 17 3 19 12 6z m2882 -6 c0
-8 -4 -12 -9 -9 -5 3 -6 10 -3 15 9 13 12 11 12 -6z m-640 -10 c0 -8 -4 -12
-9 -9 -5 3 -6 10 -3 15 9 13 12 11 12 -6z m797 7 c3 -5 -1 -9 -9 -9 -8 0 -12
4 -9 9 3 4 7 8 9 8 2 0 6 -4 9 -8z m-2837 -117 c0 -8 -4 -12 -9 -9 -5 3 -6 10
-3 15 9 13 12 11 12 -6z m2840 -40 c0 -8 -4 -12 -9 -9 -5 3 -6 10 -3 15 9 13
12 11 12 -6z m280 0 c0 -8 -4 -15 -9 -15 -10 0 -11 14 -1 23 9 10 10 9 10 -8z
m-3643 -3 c3 -5 -1 -9 -9 -9 -8 0 -12 4 -9 9 3 4 7 8 9 8 2 0 6 -4 9 -8z
m1126 2 c0 -8 -19 -13 -24 -6 -3 5 1 9 9 9 8 0 15 -2 15 -3z m1677 -79 c0 -8
-4 -12 -9 -9 -5 3 -6 10 -3 15 9 13 12 11 12 -6z m-1037 -1 c0 -8 -19 -13 -24
-6 -3 5 1 9 9 9 8 0 15 -2 15 -3z m1204 -2 c3 -5 -1 -9 -9 -9 -8 0 -12 4 -9 9
3 4 7 8 9 8 2 0 6 -4 9 -8z m231 -71 c3 -5 2 -12 -3 -15 -5 -3 -9 1 -9 9 0 17
3 19 12 6z m-1025 -7 c0 -8 -19 -13 -24 -6 -3 5 1 9 9 9 8 0 15 -2 15 -3z
m1427 -9 c0 -8 -4 -12 -9 -9 -5 3 -6 10 -3 15 9 13 12 11 12 -6z m-2677 -31
c0 -8 -19 -13 -24 -6 -3 5 1 9 9 9 8 0 15 -2 15 -3z m517 -39 c0 -8 -4 -12 -9
-9 -5 3 -6 10 -3 15 9 13 12 11 12 -6z m1360 0 c0 -8 -4 -12 -9 -9 -5 3 -6 10
-3 15 9 13 12 11 12 -6z m-2322 -4 c3 -5 2 -12 -3 -15 -5 -3 -9 1 -9 9 0 17 3
19 12 6z m159 1 c3 -5 -1 -9 -9 -9 -8 0 -12 4 -9 9 3 4 7 8 9 8 2 0 6 -4 9 -8z
m96 2 c0 -8 -19 -13 -24 -6 -3 5 1 9 9 9 8 0 15 -2 15 -3z m145 -3 c3 -5 2
-12 -3 -15 -5 -3 -9 1 -9 9 0 17 3 19 12 6z m160 0 c3 -5 2 -12 -3 -15 -5 -3
-9 1 -9 9 0 17 3 19 12 6z m640 -70 c3 -5 2 -12 -3 -15 -5 -3 -9 1 -9 9 0 17
3 19 12 6z m322 -6 c0 -8 -4 -12 -9 -9 -5 3 -6 10 -3 15 9 13 12 11 12 -6z
m160 0 c0 -8 -4 -12 -9 -9 -5 3 -6 10 -3 15 9 13 12 11 12 -6z m-643 -3 c3 -5
-1 -9 -9 -9 -8 0 -12 4 -9 9 3 4 7 8 9 8 2 0 6 -4 9 -8z m1164 -47 c-3 -3 -9
2 -12 12 -6 14 -5 15 5 6 7 -7 10 -15 7 -18z m-123 -24 c3 -5 2 -12 -3 -15 -5
-3 -9 1 -9 9 0 17 3 19 12 6z m-1271 -9 c3 -5 -1 -9 -9 -9 -8 0 -12 4 -9 9 3
4 7 8 9 8 2 0 6 -4 9 -8z m393 -7 c0 -8 -4 -12 -9 -9 -5 3 -6 10 -3 15 9 13
12 11 12 -6z m160 0 c0 -8 -4 -12 -9 -9 -5 3 -6 10 -3 15 9 13 12 11 12 -6z
m-517 -39 c0 -2 -8 -10 -17 -17 -16 -13 -17 -12 -4 4 13 16 21 21 21 13z
m1797 -31 c0 -8 -4 -12 -9 -9 -5 3 -6 10 -3 15 9 13 12 11 12 -6z m-1760 -10
c0 -8 -4 -12 -9 -9 -5 3 -6 10 -3 15 9 13 12 11 12 -6z m1613 9 c0 -8 -19 -13
-24 -6 -3 5 1 9 9 9 8 0 15 -2 15 -3z m-1775 -52 c-3 -3 -11 0 -18 7 -9 10 -8
11 6 5 10 -3 15 -9 12 -12z m1209 -30 c3 -5 -1 -9 -9 -9 -8 0 -12 4 -9 9 3 4
7 8 9 8 2 0 6 -4 9 -8z m160 0 c3 -5 -1 -9 -9 -9 -8 0 -12 4 -9 9 3 4 7 8 9 8
2 0 6 -4 9 -8z m480 -40 c3 -5 -1 -9 -9 -9 -8 0 -15 4 -15 9 0 4 4 8 9 8 6 0
12 -4 15 -8z m-1760 -40 c3 -5 -1 -9 -9 -9 -8 0 -12 4 -9 9 3 4 7 8 9 8 2 0 6
-4 9 -8z m1350 0 c3 -5 -1 -9 -9 -9 -8 0 -12 4 -9 9 3 4 7 8 9 8 2 0 6 -4 9
-8z"/>
<path d="M19722 19701 c13 -16 67 -80 122 -142 625 -721 1111 -1492 1741
-2764 487 -984 836 -1842 1091 -2685 68 -224 187 -679 225 -860 12 -58 25
-111 29 -119 12 -23 158 340 245 612 106 327 201 768 245 1137 6 52 13 106 15
120 2 14 6 54 10 90 3 36 8 81 10 100 4 38 12 140 21 285 7 112 7 557 0 645
-3 36 -8 101 -11 145 -3 44 -8 100 -11 125 -17 147 -25 200 -34 255 -5 28 -12
66 -15 85 -31 192 -101 462 -169 652 -104 293 -92 273 -258 428 -749 698
-1751 1297 -3078 1839 -222 91 -206 86 -178 52z"/>
<path d="M9755 18179 c-516 -54 -977 -303 -1203 -648 -112 -171 -157 -319
-156 -516 1 -268 96 -480 313 -695 338 -337 908 -515 1462 -460 685 70 1210
438 1345 945 25 95 26 332 2 422 -89 323 -311 580 -656 756 -316 162 -731 235
-1107 196z"/>
<path d="M3185 16508 l-40 -43 43 40 c23 21 42 40 42 42 0 8 -9 0 -45 -39z"/>
<path d="M3065 16378 l-40 -43 43 40 c23 21 42 40 42 42 0 8 -9 0 -45 -39z"/>
<path d="M2994 16298 l-29 -33 33 29 c30 28 37 36 29 36 -2 0 -16 -15 -33 -32z"/>
<path d="M2939 16233 l-24 -28 28 24 c25 23 32 31 24 31 -2 0 -14 -12 -28 -27z"/>
<path d="M2853 16128 c-273 -343 -517 -771 -688 -1208 -267 -683 -405 -1546
-340 -2130 82 -735 372 -1620 840 -2565 253 -511 467 -881 786 -1360 171 -256
501 -710 579 -795 19 -21 15 -13 -11 20 -542 704 -943 1339 -1313 2078 -402
804 -673 1556 -805 2232 -68 354 -90 624 -72 893 73 1077 405 2003 997 2785
102 134 118 164 27 50z"/>
<path d="M7630 13816 l0 -1066 1120 0 1120 0 0 -2205 0 -2205 960 0 960 0 0
2913 c0 1931 -4 2933 -10 2975 -23 138 -93 262 -195 345 -157 126 -425 216
-780 262 -280 35 -368 37 -1772 42 l-1403 5 0 -1066z"/>
<path d="M4075 8010 c10 -11 20 -20 23 -20 3 0 -3 9 -13 20 -10 11 -20 20 -23
20 -3 0 3 -9 13 -20z"/>
<path d="M4160 7905 c34 -41 69 -80 78 -87 9 -7 -17 26 -57 75 -40 48 -75 87
-78 87 -2 0 23 -34 57 -75z"/>
<path d="M4270 7775 c13 -14 26 -25 28 -25 3 0 -5 11 -18 25 -13 14 -26 25
-28 25 -3 0 5 -11 18 -25z"/>
<path d="M4330 7705 c19 -19 36 -35 39 -35 3 0 -10 16 -29 35 -19 19 -36 35
-39 35 -3 0 10 -16 29 -35z"/>
<path d="M4400 7625 c19 -19 36 -35 39 -35 3 0 -10 16 -29 35 -19 19 -36 35
-39 35 -3 0 10 -16 29 -35z"/>
<path d="M4495 7520 c21 -22 41 -40 44 -40 3 0 -13 18 -34 40 -21 22 -41 40
-44 40 -3 0 13 -18 34 -40z"/>
<path d="M4620 7388 c41 -45 50 -53 50 -45 0 2 -21 23 -47 47 l-48 45 45 -47z"/>
<path d="M7945 3044 c-166 -13 -294 -28 -290 -34 3 -5 -4 -6 -14 -3 -29 7
-232 -38 -224 -50 4 -6 1 -7 -6 -2 -15 9 -171 -34 -171 -47 0 -5 -4 -7 -10 -3
-5 3 -26 -2 -47 -11 -21 -10 -41 -17 -44 -16 -19 3 -316 -153 -364 -191 -5 -4
-29 -21 -53 -38 -23 -17 -40 -34 -37 -39 3 -4 -3 -7 -13 -6 -9 0 -16 -5 -14
-12 1 -8 -2 -11 -8 -7 -23 14 -262 -260 -243 -279 3 -3 1 -6 -6 -6 -33 0 -127
-276 -119 -347 2 -17 0 -29 -4 -27 -4 3 -8 -25 -8 -61 0 -36 3 -64 8 -61 4 2
6 -14 4 -36 -3 -24 0 -38 5 -35 5 3 7 -7 5 -25 -3 -21 -1 -29 7 -24 7 4 9 1 5
-8 -3 -8 0 -32 6 -53 22 -67 83 -182 93 -176 6 3 7 1 3 -6 -4 -6 9 -34 30 -64
52 -71 165 -188 176 -181 5 3 7 0 6 -7 -4 -15 153 -140 169 -134 7 2 15 -1 19
-7 5 -7 2 -8 -7 -4 -8 4 -5 0 6 -8 11 -9 25 -14 33 -11 7 2 10 1 7 -5 -7 -11
49 -42 59 -33 3 4 6 1 6 -6 0 -7 35 -28 78 -47 42 -20 89 -42 103 -50 15 -7
35 -15 45 -17 11 -2 36 -12 57 -21 21 -9 42 -14 47 -11 4 3 10 0 12 -6 2 -6
16 -12 31 -12 15 -1 27 -5 27 -8 0 -10 138 -41 151 -33 7 4 10 3 6 -3 -10 -17
307 -70 359 -60 13 2 24 0 24 -5 0 -4 99 -8 220 -8 121 1 219 4 216 8 -2 4 33
8 78 9 44 1 149 15 232 32 159 32 404 106 404 123 0 5 4 7 9 4 14 -9 171 65
164 77 -3 6 -1 7 5 3 12 -7 117 50 206 113 135 95 325 288 309 314 -3 5 -1 7
5 3 10 -6 79 101 74 117 -1 4 2 7 8 7 5 0 10 6 10 13 0 6 7 25 15 41 9 16 13
36 10 43 -2 8 -1 11 4 8 19 -11 46 147 45 265 -1 132 -23 229 -80 347 -46 94
-132 216 -146 207 -6 -4 -8 -3 -5 3 4 6 -14 34 -41 61 -57 62 -193 173 -203
166 -4 -2 -9 2 -12 10 -8 19 -159 107 -175 101 -7 -3 -11 -1 -8 4 6 8 -72 48
-86 44 -5 -2 -8 2 -8 8 0 6 -7 8 -16 5 -8 -3 -13 -2 -9 3 4 7 -46 31 -75 36
-3 0 -14 6 -26 12 -35 20 -257 84 -271 79 -7 -3 -13 -2 -13 3 0 10 -195 48
-285 56 -33 3 -71 7 -85 10 -32 6 -322 13 -375 9z m260 -223 c3 -5 2 -12 -3
-15 -5 -3 -9 1 -9 9 0 17 3 19 12 6z m400 -10 c3 -5 2 -12 -3 -15 -5 -3 -9 1
-9 9 0 17 3 19 12 6z m-1515 -77 c0 -8 -19 -13 -24 -6 -3 5 1 9 9 9 8 0 15 -2
15 -3z m1044 -2 c3 -5 -1 -9 -9 -9 -8 0 -12 4 -9 9 3 4 7 8 9 8 2 0 6 -4 9 -8z
m246 2 c0 -8 -19 -13 -24 -6 -3 5 1 9 9 9 8 0 15 -2 15 -3z m-1053 -79 c0 -8
-4 -12 -9 -9 -5 3 -6 10 -3 15 9 13 12 11 12 -6z m1440 -10 c0 -8 -4 -12 -9
-9 -5 3 -6 10 -3 15 9 13 12 11 12 -6z m-1362 -74 c3 -5 2 -12 -3 -15 -5 -3
-9 1 -9 9 0 17 3 19 12 6z m1602 -6 c0 -8 -4 -12 -9 -9 -5 3 -6 10 -3 15 9 13
12 11 12 -6z m63 -19 c0 -2 -8 -10 -17 -17 -16 -13 -17 -12 -4 4 13 16 21 21
21 13z m-2226 -54 c3 -5 -1 -9 -9 -9 -8 0 -12 4 -9 9 3 4 7 8 9 8 2 0 6 -4 9
-8z m656 2 c0 -8 -19 -13 -24 -6 -3 5 1 9 9 9 8 0 15 -2 15 -3z m1107 -9 c0
-8 -4 -12 -9 -9 -5 3 -6 10 -3 15 9 13 12 11 12 -6z m163 9 c0 -8 -19 -13 -24
-6 -3 5 1 9 9 9 8 0 15 -2 15 -3z m324 -2 c3 -5 -1 -9 -9 -9 -8 0 -12 4 -9 9
3 4 7 8 9 8 2 0 6 -4 9 -8z m236 2 c0 -8 -19 -13 -24 -6 -3 5 1 9 9 9 8 0 15
-2 15 -3z m-523 -39 c0 -8 -4 -12 -9 -9 -5 3 -6 10 -3 15 9 13 12 11 12 -6z
m-1113 -3 c3 -5 -1 -9 -9 -9 -8 0 -12 4 -9 9 3 4 7 8 9 8 2 0 6 -4 9 -8z m271
-41 c3 -5 2 -12 -3 -15 -5 -3 -9 1 -9 9 0 17 3 19 12 6z m175 3 c0 -8 -19 -13
-24 -6 -3 5 1 9 9 9 8 0 15 -2 15 -3z m1270 -38 c0 -2 -7 -7 -16 -10 -8 -3
-12 -2 -9 4 6 10 25 14 25 6z m160 -4 c0 -5 -7 -9 -15 -9 -8 0 -12 4 -9 9 3 4
9 8 15 8 5 0 9 -4 9 -8z m-2963 -117 c0 -8 -4 -12 -9 -9 -5 3 -6 10 -3 15 9
13 12 11 12 -6z m2877 -3 c3 -5 -1 -9 -9 -9 -8 0 -12 4 -9 9 3 4 7 8 9 8 2 0
6 -4 9 -8z m-509 -62 c-3 -5 -12 -10 -18 -10 -7 0 -6 4 3 10 19 12 23 12 15 0z
m-1328 -15 c0 -8 -4 -12 -9 -9 -5 3 -6 10 -3 15 9 13 12 11 12 -6z m1920 0 c0
-8 -4 -12 -9 -9 -5 3 -6 10 -3 15 9 13 12 11 12 -6z m-1200 -10 c0 -8 -4 -12
-9 -9 -5 3 -6 10 -3 15 9 13 12 11 12 -6z m-880 -150 c0 -8 -4 -12 -9 -9 -5 3
-6 10 -3 15 9 13 12 11 12 -6z m800 0 c0 -8 -4 -12 -9 -9 -5 3 -6 10 -3 15 9
13 12 11 12 -6z m-1522 -4 c3 -5 2 -12 -3 -15 -5 -3 -9 1 -9 9 0 17 3 19 12 6z
m160 0 c3 -5 2 -12 -3 -15 -5 -3 -9 1 -9 9 0 17 3 19 12 6z m735 3 c0 -8 -19
-13 -24 -6 -3 5 1 9 9 9 8 0 15 -2 15 -3z m35 -44 c-3 -5 -12 -10 -18 -10 -7
0 -6 4 3 10 19 12 23 12 15 0z m1112 -5 c0 -8 -4 -12 -9 -9 -5 3 -6 10 -3 15
9 13 12 11 12 -6z m-1642 -24 c3 -5 2 -12 -3 -15 -5 -3 -9 1 -9 9 0 17 3 19
12 6z m165 -7 c0 -8 -19 -13 -24 -6 -3 5 1 9 9 9 8 0 15 -2 15 -3z m397 -9 c0
-8 -4 -12 -9 -9 -5 3 -6 10 -3 15 9 13 12 11 12 -6z m723 9 c0 -8 -19 -13 -24
-6 -3 5 1 9 9 9 8 0 15 -2 15 -3z m-636 -82 c3 -5 -1 -9 -9 -9 -8 0 -12 4 -9
9 3 4 7 8 9 8 2 0 6 -4 9 -8z m326 2 c0 -8 -19 -13 -24 -6 -3 5 1 9 9 9 8 0
15 -2 15 -3z m160 0 c0 -8 -19 -13 -24 -6 -3 5 1 9 9 9 8 0 15 -2 15 -3z m707
-9 c0 -8 -4 -12 -9 -9 -5 3 -6 10 -3 15 9 13 12 11 12 -6z m-562 -64 c3 -5 2
-12 -3 -15 -5 -3 -9 1 -9 9 0 17 3 19 12 6z m322 -6 c0 -8 -4 -12 -9 -9 -5 3
-6 10 -3 15 9 13 12 11 12 -6z m160 0 c0 -8 -4 -12 -9 -9 -5 3 -6 10 -3 15 9
13 12 11 12 -6z m-2083 -3 c3 -5 -1 -9 -9 -9 -8 0 -12 4 -9 9 3 4 7 8 9 8 2 0
6 -4 9 -8z m2406 2 c0 -8 -19 -13 -24 -6 -3 5 1 9 9 9 8 0 15 -2 15 -3z m240
0 c0 -8 -19 -13 -24 -6 -3 5 1 9 9 9 8 0 15 -2 15 -3z m157 -9 c0 -8 -4 -12
-9 -9 -5 3 -6 10 -3 15 9 13 12 11 12 -6z m-123 -41 c3 -8 2 -12 -4 -9 -6 3
-10 10 -10 16 0 14 7 11 14 -7z m-1717 -39 c0 -8 -4 -12 -9 -9 -5 3 -6 10 -3
15 9 13 12 11 12 -6z m160 0 c0 -8 -4 -12 -9 -9 -5 3 -6 10 -3 15 9 13 12 11
12 -6z m400 0 c0 -8 -4 -12 -9 -9 -5 3 -6 10 -3 15 9 13 12 11 12 -6z m1038
-74 c3 -5 2 -12 -3 -15 -5 -3 -9 1 -9 9 0 17 3 19 12 6z m-1911 -79 c3 -5 -1
-9 -9 -9 -8 0 -12 4 -9 9 3 4 7 8 9 8 2 0 6 -4 9 -8z m160 0 c3 -5 -1 -9 -9
-9 -8 0 -12 4 -9 9 3 4 7 8 9 8 2 0 6 -4 9 -8z m156 2 c0 -8 -19 -13 -24 -6
-3 5 1 9 9 9 8 0 15 -2 15 -3z m1195 -3 c3 -5 2 -12 -3 -15 -5 -3 -9 1 -9 9 0
17 3 19 12 6z m-1158 -36 c0 -8 -4 -12 -9 -9 -5 3 -6 10 -3 15 9 13 12 11 12
-6z m-1320 -40 c0 -8 -4 -12 -9 -9 -5 3 -6 10 -3 15 9 13 12 11 12 -6z m1923
-1 c0 -8 -19 -13 -24 -6 -3 5 1 9 9 9 8 0 15 -2 15 -3z m955 -3 c3 -5 2 -12
-3 -15 -5 -3 -9 1 -9 9 0 17 3 19 12 6z m175 3 c0 -8 -19 -13 -24 -6 -3 5 1 9
9 9 8 0 15 -2 15 -3z m-2294 -50 c1 -9 0 -13 -4 -10 -3 4 -7 14 -8 22 -1 9 0
13 4 10 3 -4 7 -14 8 -22z m2062 1 c-3 -3 -9 2 -12 12 -6 14 -5 15 5 6 7 -7
10 -15 7 -18z m-1943 -3 c-3 -3 -11 0 -18 7 -9 10 -8 11 6 5 10 -3 15 -9 12
-12z m165 6 c0 -4 -4 -8 -9 -8 -6 0 -12 4 -15 8 -3 5 1 9 9 9 8 0 15 -4 15 -9z
m1197 -33 c0 -8 -4 -12 -9 -9 -5 3 -6 10 -3 15 9 13 12 11 12 -6z m360 -50 c0
-8 -4 -12 -9 -9 -5 3 -6 10 -3 15 9 13 12 11 12 -6z m-682 -24 c3 -5 2 -12 -3
-15 -5 -3 -9 1 -9 9 0 17 3 19 12 6z m639 -9 c3 -5 -1 -9 -9 -9 -8 0 -12 4 -9
9 3 4 7 8 9 8 2 0 6 -4 9 -8z m-2264 -38 c0 -8 -19 -13 -24 -6 -3 5 1 9 9 9 8
0 15 -2 15 -3z m1430 0 c0 -8 -19 -13 -24 -6 -3 5 1 9 9 9 8 0 15 -2 15 -3z
m1175 -3 c3 -5 2 -12 -3 -15 -5 -3 -9 1 -9 9 0 17 3 19 12 6z m-658 -36 c0 -8
-4 -12 -9 -9 -5 3 -6 10 -3 15 9 13 12 11 12 -6z m-1920 -10 c0 -8 -4 -12 -9
-9 -5 3 -6 10 -3 15 9 13 12 11 12 -6z m163 9 c0 -8 -19 -13 -24 -6 -3 5 1 9
9 9 8 0 15 -2 15 -3z m795 -3 c3 -5 2 -12 -3 -15 -5 -3 -9 1 -9 9 0 17 3 19
12 6z m255 3 c0 -8 -19 -13 -24 -6 -3 5 1 9 9 9 8 0 15 -2 15 -3z m145 -3 c3
-5 2 -12 -3 -15 -5 -3 -9 1 -9 9 0 17 3 19 12 6z m1285 3 c0 -8 -19 -13 -24
-6 -3 5 1 9 9 9 8 0 15 -2 15 -3z m-403 -79 c0 -8 -4 -12 -9 -9 -5 3 -6 10 -3
15 9 13 12 11 12 -6z m-1922 -4 c3 -5 2 -12 -3 -15 -5 -3 -9 1 -9 9 0 17 3 19
12 6z m175 3 c0 -8 -19 -13 -24 -6 -3 5 1 9 9 9 8 0 15 -2 15 -3z m307 -9 c0
-8 -4 -12 -9 -9 -5 3 -6 10 -3 15 9 13 12 11 12 -6z m1197 7 c3 -5 -1 -9 -9
-9 -8 0 -12 4 -9 9 3 4 7 8 9 8 2 0 6 -4 9 -8z m-1274 -78 c0 -8 -19 -13 -24
-6 -3 5 1 9 9 9 8 0 15 -2 15 -3z m234 -2 c3 -5 -1 -9 -9 -9 -8 0 -12 4 -9 9
3 4 7 8 9 8 2 0 6 -4 9 -8z m-639 -71 c3 -5 2 -12 -3 -15 -5 -3 -9 1 -9 9 0
17 3 19 12 6z m1362 -6 c0 -8 -4 -12 -9 -9 -5 3 -6 10 -3 15 9 13 12 11 12 -6z
m-147 -1 c0 -8 -19 -13 -24 -6 -3 5 1 9 9 9 8 0 15 -2 15 -3z"/>
</g>
</svg>
